<svg width="25" height="25" viewBox="0 0 25 25" fill="none" xmlns="http://www.w3.org/2000/svg">
<path d="M8.51409 16.9977H14.8542C15.3226 16.9977 15.6973 16.6187 15.6973 16.1546V13.2336C15.6973 12.7652 15.3183 12.3905 14.8542 12.3905H10.047C9.57858 12.3905 9.20388 12.0116 9.20388 11.5474V8.48597C9.20388 8.01759 9.58284 7.64289 10.047 7.64289H16.3871M12.4485 7.63863V5.5948M12.4485 19.2203V17.1807M23.83 12.4076C23.83 18.6934 18.7343 23.7891 12.4485 23.7891C6.16259 23.7891 1.06689 18.6934 1.06689 12.4076C1.06689 6.1217 6.16259 1.026 12.4485 1.026C18.7343 1.026 23.83 6.1217 23.83 12.4076Z" stroke="#4E4E4E" stroke-width="1.10554" stroke-miterlimit="10" stroke-linecap="round"/>
</svg>
