<svg width="31" height="24" viewBox="0 0 31 24" fill="none" xmlns="http://www.w3.org/2000/svg">
<path d="M15.4485 18.8547C15.7538 18.8547 16.0013 18.6072 16.0013 18.3019C16.0013 17.9967 15.7538 17.7492 15.4485 17.7492V18.8547ZM4.28537 17.7492C3.98008 17.7492 3.7326 17.9967 3.7326 18.3019C3.7326 18.6072 3.98008 18.8547 4.28537 18.8547V17.7492ZM1.82273 1.24637H29.0744V0.140834H1.82273V1.24637ZM29.0744 1.24637C29.3846 1.24637 29.7413 1.55005 29.7413 2.06213H30.8468C30.8468 1.06258 30.1114 0.140834 29.0744 0.140834V1.24637ZM29.7413 2.06213V22.0882H30.8468V2.06213H29.7413ZM29.7413 22.0882C29.7413 22.6003 29.3846 22.904 29.0744 22.904V24.0095C30.1114 24.0095 30.8468 23.0877 30.8468 22.0882H29.7413ZM29.0744 22.904H1.82273V24.0095H29.0744V22.904ZM1.82273 22.904C1.51251 22.904 1.1558 22.6003 1.1558 22.0882H0.0502581C0.0502581 23.0877 0.785706 24.0095 1.82273 24.0095V22.904ZM1.1558 22.0882V2.06213H0.0502581V22.0882H1.1558ZM1.1558 2.06213C1.1558 1.55005 1.51251 1.24637 1.82273 1.24637V0.140834C0.785705 0.140834 0.0502581 1.06258 0.0502581 2.06213H1.1558ZM0.603027 7.60675H30.2941V6.50121H0.603027V7.60675ZM22.2614 15.7397H24.4976V14.6342H22.2614V15.7397ZM24.5256 15.8386V18.3476H25.6311V15.8386H24.5256ZM24.4976 18.4465H22.2614V19.552H24.4976V18.4465ZM22.2334 18.3476V15.8386H21.1279V18.3476H22.2334ZM22.2614 18.4465C22.2758 18.4465 22.2756 18.4542 22.2634 18.4406C22.2504 18.426 22.2334 18.3946 22.2334 18.3476H21.1279C21.1279 18.9512 21.5773 19.552 22.2614 19.552V18.4465ZM24.5256 18.3476C24.5256 18.3946 24.5086 18.426 24.4956 18.4406C24.4834 18.4542 24.4832 18.4465 24.4976 18.4465V19.552C25.1817 19.552 25.6311 18.9512 25.6311 18.3476H24.5256ZM24.4976 15.7397C24.4832 15.7397 24.4834 15.7319 24.4956 15.7456C24.5086 15.7602 24.5256 15.7915 24.5256 15.8386H25.6311C25.6311 15.235 25.1817 14.6342 24.4976 14.6342V15.7397ZM22.2614 14.6342C21.5773 14.6342 21.1279 15.235 21.1279 15.8386H22.2334C22.2334 15.7915 22.2504 15.7602 22.2634 15.7456C22.2756 15.7319 22.2758 15.7397 22.2614 15.7397V14.6342ZM15.4485 17.7492H4.28537V18.8547H15.4485V17.7492Z" fill="#4E4E4E"/>
</svg>
