<svg width="25" height="25" viewBox="0 0 25 25" fill="none" xmlns="http://www.w3.org/2000/svg">
<path d="M20.0061 1.69093L20.499 1.94109L20.5025 1.93399L20.0061 1.69093ZM19.8986 1.50461L20.0023 0.96167L19.992 0.959702L19.9816 0.958125L19.8986 1.50461ZM11.64 3.63394L12.0116 4.04329L12.0189 4.03642L11.64 3.63394ZM11.4739 3.62064L11.038 3.96071L11.0425 3.96625L11.4739 3.62064ZM4.69109 1.7486L4.82624 2.28459L4.82669 2.28448L4.69109 1.7486ZM4.60313 1.93935L4.12561 2.21783L4.12752 2.22105L4.60313 1.93935ZM7.42765 6.70817L6.95204 6.98986L7.1126 7.26094H7.42765V6.70817ZM17.465 6.70817L17.9375 6.42139L17.7761 6.1554H17.465V6.70817ZM23.1775 16.1216L23.6502 15.8349L23.6501 15.8348L23.1775 16.1216ZM24.0327 19.7104L24.5817 19.7753L24.5819 19.7731L24.0327 19.7104ZM23.2997 21.7732L22.8355 21.473L22.8352 21.4735L23.2997 21.7732ZM7.43253 6.70817V6.1554H7.12139L6.95997 6.42139L7.43253 6.70817ZM1.71996 16.1216L1.2474 15.8348L1.24733 15.8349L1.71996 16.1216ZM0.864786 19.7104L0.315575 19.7731L0.315844 19.7753L0.864786 19.7104ZM1.59779 21.7732L2.06225 21.4735L2.06195 21.473L1.59779 21.7732ZM9.98829 17.1215C9.683 17.1215 9.43552 17.3689 9.43552 17.6742C9.43552 17.9795 9.683 18.227 9.98829 18.227V17.1215ZM14.8994 12.9214C15.2047 12.9214 15.4522 12.6739 15.4522 12.3686C15.4522 12.0634 15.2047 11.8159 14.8994 11.8159V12.9214ZM11.8935 12.3686C11.8935 12.6739 12.141 12.9214 12.4463 12.9214C12.7516 12.9214 12.9991 12.6739 12.9991 12.3686H11.8935ZM12.9991 11.2108C12.9991 10.9055 12.7516 10.658 12.4463 10.658C12.141 10.658 11.8935 10.9055 11.8935 11.2108H12.9991ZM11.8935 18.9341C11.8935 19.2394 12.141 19.4868 12.4463 19.4868C12.7516 19.4868 12.9991 19.2394 12.9991 18.9341H11.8935ZM12.9991 17.7763C12.9991 17.471 12.7516 17.2235 12.4463 17.2235C12.141 17.2235 11.8935 17.471 11.8935 17.7763H12.9991ZM17.953 6.9583L20.499 1.94107L19.5131 1.44079L16.9671 6.45803L17.953 6.9583ZM20.5025 1.93399C20.7367 1.45563 20.3713 1.0322 20.0023 0.96167L19.7948 2.04756C19.6934 2.02819 19.5898 1.96462 19.5249 1.85407C19.4567 1.73768 19.4431 1.58373 19.5096 1.44787L20.5025 1.93399ZM19.9816 0.958125C14.8503 0.177885 11.8582 2.66934 11.2611 3.23147L12.0189 4.03642C12.4773 3.60486 15.1441 1.34081 19.8155 2.0511L19.9816 0.958125ZM11.2685 3.22466C11.4646 3.04662 11.7528 3.08474 11.9052 3.27502L11.0425 3.96625C11.2731 4.25413 11.7177 4.30999 12.0115 4.04323L11.2685 3.22466ZM11.9096 3.28059C11.4276 2.66283 9.06526 0.0715567 4.55549 1.21272L4.82669 2.28448C8.73184 1.29631 10.6893 3.51377 11.0381 3.96068L11.9096 3.28059ZM4.55593 1.21261C4.15602 1.31345 3.87372 1.78588 4.12562 2.21782L5.08063 1.66088C5.24457 1.942 5.05023 2.22811 4.82624 2.28459L4.55593 1.21261ZM4.12752 2.22105L6.95204 6.98986L7.90325 6.42647L5.07873 1.65766L4.12752 2.22105ZM7.42765 7.26094H17.465V6.1554H7.42765V7.26094ZM16.9924 6.99494L22.705 16.4084L23.6501 15.8348L17.9375 6.42139L16.9924 6.99494ZM22.7049 16.4083C23.3164 17.4163 23.6092 18.5458 23.4835 19.6477L24.5819 19.7731C24.7396 18.3907 24.3679 17.0183 23.6502 15.8349L22.7049 16.4083ZM23.4838 19.6455C23.4138 20.237 23.2271 20.8676 22.8355 21.473L23.7639 22.0734C24.2617 21.3036 24.4953 20.5057 24.5817 19.7753L23.4838 19.6455ZM22.8352 21.4735C21.9888 22.7852 20.3456 23.5716 18.584 23.5716V24.6771C20.6438 24.6771 22.6755 23.76 23.7642 22.0729L22.8352 21.4735ZM18.584 23.5716H12.7444V24.6771H18.584V23.5716ZM17.4699 6.1554H7.43253V7.26094H17.4699V6.1554ZM6.95997 6.42139L1.2474 15.8348L2.19252 16.4084L7.90509 6.99494L6.95997 6.42139ZM1.24733 15.8349C0.529591 17.0183 0.157869 18.3907 0.315579 19.7731L1.41399 19.6477C1.28827 18.5458 1.58114 17.4163 2.19259 16.4083L1.24733 15.8349ZM0.315844 19.7753C0.402241 20.5057 0.635783 21.3036 1.13364 22.0734L2.06195 21.473C1.67042 20.8676 1.48371 20.237 1.41373 19.6455L0.315844 19.7753ZM1.13333 22.0729C2.22202 23.76 4.25366 24.6771 6.31348 24.6771V23.5716C4.55188 23.5716 2.90871 22.7852 2.06225 21.4735L1.13333 22.0729ZM6.31348 24.6771H13.1989V23.5716H6.31348V24.6771ZM9.98829 18.227H13.9465V17.1215H9.98829V18.227ZM13.9465 18.227C14.4935 18.227 15.0271 17.8157 15.0271 17.1951H13.9215C13.9215 17.1793 13.9252 17.1635 13.9314 17.15C13.9374 17.1372 13.9443 17.1293 13.9488 17.1252C13.9576 17.1172 13.959 17.1215 13.9465 17.1215V18.227ZM15.0271 17.1951V15.5405H13.9215V17.1951H15.0271ZM15.0271 15.5405C15.0271 14.9199 14.4935 14.5086 13.9465 14.5086V15.6141C13.959 15.6141 13.9576 15.6184 13.9488 15.6104C13.9443 15.6063 13.9374 15.5984 13.9314 15.5855C13.9252 15.5721 13.9215 15.5563 13.9215 15.5405H15.0271ZM13.9465 14.5086H10.9412V15.6141H13.9465V14.5086ZM10.9412 14.5086C10.9287 14.5086 10.9301 14.5044 10.9389 14.5123C10.9434 14.5164 10.9503 14.5243 10.9563 14.5372C10.9625 14.5506 10.9662 14.5665 10.9662 14.5823H9.86066C9.86066 15.2028 10.3942 15.6141 10.9412 15.6141V14.5086ZM10.9662 14.5823V12.8477H9.86066V14.5823H10.9662ZM10.9662 12.8477C10.9662 12.8635 10.9625 12.8794 10.9563 12.8928C10.9503 12.9057 10.9434 12.9136 10.9389 12.9177C10.9301 12.9256 10.9287 12.9214 10.9412 12.9214V11.8159C10.3942 11.8159 9.86066 12.2272 9.86066 12.8477H10.9662ZM10.9412 12.9214H14.8994V11.8159H10.9412V12.9214ZM12.9991 12.3686V11.2108H11.8935V12.3686H12.9991ZM12.9991 18.9341V17.7763H11.8935V18.9341H12.9991Z" fill="#4E4E4E"/>
</svg>
