<svg width="28" height="28" viewBox="0 0 28 28" fill="none" xmlns="http://www.w3.org/2000/svg">
<path d="M19.9392 15.2174H16.7942C16.3775 15.2174 15.9777 15.3825 15.6823 15.6765C15.387 15.9705 15.2201 16.3695 15.2181 16.7862V19.9312C15.2181 20.3492 15.3842 20.7501 15.6798 21.0457C15.9753 21.3412 16.3762 21.5073 16.7942 21.5073H19.9392C20.3558 21.5051 20.7546 21.3381 21.0484 21.0428C21.3422 20.7474 21.5072 20.3478 21.5072 19.9312V16.7862C21.5072 16.3704 21.342 15.9716 21.0479 15.6775C20.7539 15.3834 20.355 15.2182 19.9392 15.2182M11.2056 15.2174H8.06068C7.644 15.2198 7.24519 15.387 6.95139 15.6825C6.65758 15.9779 6.49267 16.3777 6.49268 16.7944V19.9393C6.49268 20.3552 6.65788 20.754 6.95193 21.048C7.24599 21.3421 7.64482 21.5073 8.06068 21.5073H11.2056C11.6222 21.5073 12.0219 21.3424 12.3172 21.0485C12.6126 20.7547 12.7796 20.3559 12.7817 19.9393V16.7944C12.7817 16.3764 12.6157 15.9755 12.3201 15.6799C12.0245 15.3843 11.6236 15.2182 11.2056 15.2182M11.2056 6.4928H8.06068C7.85476 6.4928 7.65087 6.53336 7.46063 6.61215C7.27039 6.69095 7.09753 6.80645 6.95193 6.95205C6.80633 7.09766 6.69083 7.27051 6.61203 7.46075C6.53323 7.65099 6.49268 7.85489 6.49268 8.0608V11.2057C6.49267 11.6223 6.65761 12.022 6.95144 12.3173C7.24526 12.6127 7.64407 12.7797 8.06068 12.7818H11.2056C11.6236 12.7818 12.0245 12.6158 12.3201 12.3202C12.6157 12.0246 12.7817 11.6237 12.7817 11.2057V8.0608C12.7796 7.64419 12.6126 7.24538 12.3172 6.95156C12.0219 6.65773 11.6222 6.49279 11.2056 6.4928ZM19.9392 6.4928H16.7942C16.3776 6.49279 15.978 6.65773 15.6826 6.95156C15.3873 7.24538 15.2203 7.64419 15.2181 8.0608V11.2057C15.2183 11.6237 15.3845 12.0244 15.68 12.32C15.9755 12.6155 16.3763 12.7816 16.7942 12.7818H19.9392C20.3558 12.7797 20.7546 12.6127 21.0484 12.3173C21.3422 12.022 21.5072 11.6223 21.5072 11.2057V8.0608C21.5072 7.64494 21.342 7.24611 21.0479 6.95205C20.7539 6.658 20.355 6.4928 19.9392 6.4928Z" stroke="#4E4E4E" stroke-width="1.21739" stroke-linecap="round" stroke-linejoin="round"/>
</svg>
