<svg width="25" height="25" viewBox="0 0 25 25" fill="none" xmlns="http://www.w3.org/2000/svg">
<path fill-rule="evenodd" clip-rule="evenodd" d="M12.4731 6.71781C10.9467 6.71781 9.48287 7.32415 8.40357 8.40345C7.32428 9.48275 6.71793 10.9466 6.71793 12.4729C6.71793 13.9993 7.32428 15.4631 8.40357 16.5424C9.48287 17.6217 10.9467 18.2281 12.4731 18.2281C13.9994 18.2281 15.4633 17.6217 16.5426 16.5424C17.6219 15.4631 18.2282 13.9993 18.2282 12.4729C18.2282 10.9466 17.6219 9.48275 16.5426 8.40345C15.4633 7.32415 13.9994 6.71781 12.4731 6.71781ZM5.78467 12.4729C5.78467 8.77908 8.7792 5.78455 12.4731 5.78455C16.1669 5.78455 19.1615 8.77908 19.1615 12.4729C19.1615 16.1668 16.1669 19.1613 12.4731 19.1613C8.7792 19.1613 5.78467 16.1668 5.78467 12.4729ZM12.4731 8.27325C12.5968 8.27325 12.7155 8.32242 12.803 8.40993C12.8905 8.49744 12.9397 8.61613 12.9397 8.73988V8.93711C13.9538 9.11879 14.8062 9.88096 14.8062 10.9175C14.8062 11.0413 14.7571 11.16 14.6696 11.2475C14.582 11.335 14.4634 11.3841 14.3396 11.3841C14.2158 11.3841 14.0971 11.335 14.0096 11.2475C13.9221 11.16 13.873 11.0413 13.873 10.9175C13.873 10.4957 13.5221 10.0483 12.9397 9.88904V12.048C13.9538 12.2297 14.8062 12.9918 14.8062 14.0284C14.8062 15.0649 13.9538 15.8271 12.9397 16.0088V16.206C12.9397 16.3298 12.8905 16.4485 12.803 16.536C12.7155 16.6235 12.5968 16.6726 12.4731 16.6726C12.3493 16.6726 12.2306 16.6235 12.1431 16.536C12.0556 16.4485 12.0064 16.3298 12.0064 16.206V16.0088C10.9923 15.8271 10.1399 15.0649 10.1399 14.0284C10.1399 13.9046 10.1891 13.7859 10.2766 13.6984C10.3641 13.6109 10.4828 13.5618 10.6065 13.5618C10.7303 13.5618 10.849 13.6109 10.9365 13.6984C11.024 13.7859 11.0732 13.9046 11.0732 14.0284C11.0732 14.4502 11.4241 14.8976 12.0064 15.0562V12.8979C10.9923 12.7162 10.1399 11.954 10.1399 10.9175C10.1399 9.88096 10.9923 9.11879 12.0064 8.93711V8.73988C12.0064 8.61613 12.0556 8.49744 12.1431 8.40993C12.2306 8.32242 12.3493 8.27325 12.4731 8.27325ZM12.0064 9.88904C11.4241 10.0483 11.0732 10.4957 11.0732 10.9175C11.0732 11.3393 11.4241 11.7867 12.0064 11.9453V9.88904ZM12.9397 12.9999V15.0568C13.5221 14.8976 13.873 14.4508 13.873 14.0284C13.873 13.6065 13.5221 13.1586 12.9397 12.9999Z" fill="#808080"/>
</svg>
