<svg width="28" height="29" viewBox="0 0 28 29" fill="none" xmlns="http://www.w3.org/2000/svg">
<path d="M15.4053 6.70312C15.1131 6.58209 14.742 6.58209 13.9999 6.58209C13.2578 6.58209 12.8868 6.58209 12.5945 6.70312C12.4012 6.78316 12.2255 6.90051 12.0775 7.04848C11.9296 7.19644 11.8122 7.37212 11.7322 7.56547C11.6589 7.74303 11.6295 7.95086 11.6183 8.25264C11.6134 8.4708 11.553 8.68413 11.443 8.87258C11.333 9.06103 11.1768 9.21842 10.9893 9.32997C10.7989 9.4367 10.5845 9.49328 10.3662 9.4944C10.148 9.49551 9.93301 9.44112 9.74155 9.33634C9.474 9.19461 9.28051 9.11657 9.08862 9.09109C8.67004 9.03605 8.24674 9.14947 7.91175 9.40641C7.66173 9.5999 7.4754 9.92079 7.10435 10.5634C6.73329 11.2059 6.54697 11.5268 6.50636 11.8414C6.479 12.0487 6.49276 12.2595 6.54686 12.4616C6.60097 12.6636 6.69435 12.8531 6.82168 13.019C6.93952 13.1719 7.10435 13.3001 7.35995 13.4609C7.73657 13.6974 7.97864 14.1003 7.97864 14.5446C7.97864 14.989 7.73657 15.3919 7.35995 15.6276C7.10435 15.7892 6.93873 15.9174 6.82168 16.0703C6.69435 16.2362 6.60097 16.4257 6.54686 16.6277C6.49276 16.8298 6.479 17.0406 6.50636 17.2479C6.54776 17.5617 6.73329 17.8834 7.10355 18.5259C7.4754 19.1685 7.66093 19.4894 7.91175 19.6829C8.07772 19.8102 8.26715 19.9036 8.46921 19.9577C8.67128 20.0118 8.88203 20.0256 9.08941 19.9982C9.28051 19.9727 9.474 19.8947 9.74155 19.753C9.93301 19.6482 10.148 19.5938 10.3662 19.5949C10.5845 19.596 10.7989 19.6526 10.9893 19.7593C11.3739 19.9823 11.6024 20.3924 11.6183 20.8367C11.6295 21.1392 11.6581 21.3463 11.7322 21.5238C11.8122 21.7172 11.9296 21.8929 12.0775 22.0408C12.2255 22.1888 12.4012 22.3061 12.5945 22.3862C12.8868 22.5072 13.2578 22.5072 13.9999 22.5072C14.742 22.5072 15.1131 22.5072 15.4053 22.3862C15.5987 22.3061 15.7743 22.1888 15.9223 22.0408C16.0703 21.8929 16.1876 21.7172 16.2677 21.5238C16.3409 21.3463 16.3704 21.1392 16.3815 20.8367C16.3974 20.3924 16.626 19.9815 17.0106 19.7593C17.201 19.6526 17.4153 19.596 17.6336 19.5949C17.8519 19.5938 18.0668 19.6482 18.2583 19.753C18.5258 19.8947 18.7193 19.9727 18.9104 19.9982C19.1178 20.0256 19.3286 20.0118 19.5306 19.9577C19.7327 19.9036 19.9221 19.8102 20.0881 19.6829C20.3389 19.4902 20.5244 19.1685 20.8955 18.5259C21.2666 17.8834 21.4529 17.5625 21.4935 17.2479C21.5208 17.0406 21.5071 16.8298 21.453 16.6277C21.3989 16.4257 21.3055 16.2362 21.1782 16.0703C21.0603 15.9174 20.8955 15.7892 20.6399 15.6284C20.4534 15.515 20.2987 15.356 20.1905 15.1665C20.0823 14.9769 20.024 14.7629 20.0212 14.5446C20.0212 14.1003 20.2633 13.6974 20.6399 13.4617C20.8955 13.3001 21.0611 13.1719 21.1782 13.019C21.3055 12.8531 21.3989 12.6636 21.453 12.4616C21.5071 12.2595 21.5208 12.0487 21.4935 11.8414C21.4521 11.5276 21.2666 11.2059 20.8963 10.5634C20.5244 9.92079 20.3389 9.5999 20.0881 9.40641C19.9221 9.27908 19.7327 9.1857 19.5306 9.1316C19.3286 9.07749 19.1178 9.06373 18.9104 9.09109C18.7193 9.11657 18.5258 9.19461 18.2575 9.33634C18.0661 9.44098 17.8513 9.49529 17.6332 9.49418C17.4151 9.49306 17.2009 9.43656 17.0106 9.32997C16.823 9.21842 16.6669 9.06103 16.5568 8.87258C16.4468 8.68413 16.3865 8.4708 16.3815 8.25264C16.3704 7.95006 16.3417 7.74303 16.2677 7.56547C16.1876 7.37212 16.0703 7.19644 15.9223 7.04848C15.7743 6.90051 15.5987 6.78316 15.4053 6.70312Z" stroke="#4E4E4E" stroke-width="1.21739"/>
<path d="M14.0001 18.8811C16.4604 18.8811 18.4549 16.9396 18.4549 14.5445C18.4549 12.1495 16.4604 10.2079 14.0001 10.2079C11.5399 10.2079 9.54541 12.1495 9.54541 14.5445C9.54541 16.9396 11.5399 18.8811 14.0001 18.8811Z" stroke="#4E4E4E" stroke-width="1.21739"/>
</svg>
