<svg width="171" height="39" viewBox="0 0 171 39" fill="none" xmlns="http://www.w3.org/2000/svg">
<path fill-rule="evenodd" clip-rule="evenodd" d="M22.501 16.0945H24.2964V14.9594C24.2964 9.31728 19.7225 4.74341 14.0804 4.74341C8.43822 4.74341 3.86435 9.31728 3.86435 14.9594L3.86435 16.0945H5.65941C5.23373 17.1462 4.99932 18.2956 4.99932 19.4999C4.99932 20.7042 5.23374 21.8537 5.65943 22.9053H3.86426V24.0404C3.86426 29.6826 8.43813 34.2564 14.0803 34.2564C19.7224 34.2564 24.2963 29.6826 24.2963 24.0404V22.9053H22.501C22.9267 21.8537 23.1611 20.7042 23.1611 19.4999C23.1611 18.2956 22.9267 17.1462 22.501 16.0945ZM22.0262 15.1004V14.9594C22.0262 10.5711 18.4687 7.01364 14.0804 7.01364C9.69203 7.01363 6.13457 10.5711 6.13457 14.9594V15.0999C7.68373 12.3083 10.6613 10.419 14.0802 10.419C17.4993 10.419 20.4771 12.3086 22.0262 15.1004ZM14.0802 28.5808C17.4993 28.5808 20.477 26.6913 22.0261 23.8995V24.0404C22.0261 28.4288 18.4686 31.9862 14.0803 31.9862C9.69194 31.9862 6.13449 28.4288 6.13449 24.0404V23.8997C7.68362 26.6914 10.6613 28.5808 14.0802 28.5808Z" fill="url(#paint0_linear_372_123)"/>
<path d="M32.1251 25.3815L36.8199 10.1978H41.8583L46.5531 25.3815L46.1408 25.9999H43.3927L42.4308 22.7937H36.2474L35.2855 25.9999H32.5374L32.1251 25.3815ZM37.1406 19.8165H41.5376L39.5223 13.175H39.1559L37.1406 19.8165ZM48.8436 25.9999V10.1978H52.1414V25.9999H48.8436ZM56.1175 25.9999V10.1978H63.5376C65.8125 10.1978 66.9499 11.3353 66.9499 13.6102V16.1064C66.9499 18.1065 66.0644 19.2134 64.2933 19.4271L67.4079 25.6106L67.2018 25.9999H65.9422L62.6444 19.4958H57.6519V25.9999H56.1175ZM57.6519 18.1218H63.6292C64.8201 18.1218 65.4155 17.5187 65.4155 16.3125V13.3811C65.4155 12.1903 64.8201 11.5948 63.6292 11.5948H57.6519V18.1218ZM70.3095 22.6334V17.5034C70.3095 15.2591 71.4316 14.1369 73.676 14.1369H76.6532C78.8823 14.1369 79.9968 15.2591 79.9968 17.5034V20.6409H71.7522V22.8624C71.7522 24.1143 72.3782 24.7403 73.6302 24.7403H79.5388V25.4044L78.7601 25.9999H73.676C71.4316 25.9999 70.3095 24.8777 70.3095 22.6334ZM71.7522 19.4271H78.554V17.2744C78.554 16.0377 77.9357 15.4194 76.699 15.4194H73.6302C72.3782 15.4194 71.7522 16.0377 71.7522 17.2744V19.4271ZM82.1785 14.4346L82.3617 14.1369H83.6213L87.2856 24.7403H87.8123L91.4994 14.1369H92.7361L92.9193 14.4346L88.82 25.9999H86.3008L82.1785 14.4346ZM95.0672 22.6334V17.5034C95.0672 15.2591 96.1894 14.1369 98.4338 14.1369H101.64C103.869 14.1369 104.984 15.2591 104.984 17.5034V22.6334C104.984 24.8777 103.869 25.9999 101.64 25.9999H98.4338C96.1894 25.9999 95.0672 24.8777 95.0672 22.6334ZM96.51 22.8624C96.51 24.1143 97.136 24.7403 98.388 24.7403H101.686C102.922 24.7403 103.541 24.1143 103.541 22.8624V17.2744C103.541 16.0377 102.922 15.4194 101.686 15.4194H98.388C97.136 15.4194 96.51 16.0377 96.51 17.2744V22.8624ZM108.488 23.0914V9.05276H109.931V23.2059C109.931 24.3052 110.488 24.8777 111.603 24.9235V26.1831C109.526 26.1831 108.488 25.1525 108.488 23.0914ZM114.102 22.6334V14.1369H115.545V22.8624C115.545 24.1143 116.171 24.7403 117.423 24.7403H122.346V14.1369H123.789V25.9999H117.468C115.224 25.9999 114.102 24.8777 114.102 22.6334ZM127.476 22.6334V10.1978H128.919V14.1369H133.407V15.4194H128.919V22.8624C128.919 24.1143 129.545 24.7403 130.797 24.7403H133.636V25.4044L132.858 25.9999H130.842C128.598 25.9999 127.476 24.8777 127.476 22.6334ZM136.243 11.8696V9.99172H137.892V11.8696H136.243ZM136.335 25.9999V14.1369H137.777V25.9999H136.335ZM141.362 22.6334V17.5034C141.362 15.2591 142.484 14.1369 144.729 14.1369H147.935C150.164 14.1369 151.279 15.2591 151.279 17.5034V22.6334C151.279 24.8777 150.164 25.9999 147.935 25.9999H144.729C142.484 25.9999 141.362 24.8777 141.362 22.6334ZM142.805 22.8624C142.805 24.1143 143.431 24.7403 144.683 24.7403H147.981C149.217 24.7403 149.836 24.1143 149.836 22.8624V17.2744C149.836 16.0377 149.217 15.4194 147.981 15.4194H144.683C143.431 15.4194 142.805 16.0377 142.805 17.2744V22.8624ZM154.875 25.9999V14.1369H161.219C163.448 14.1369 164.562 15.2591 164.562 17.5034V25.9999H163.119V17.2744C163.119 16.0377 162.501 15.4194 161.264 15.4194H156.318V25.9999H154.875Z" fill="url(#paint1_linear_372_123)"/>
<defs>
<linearGradient id="paint0_linear_372_123" x1="14.0803" y1="34.2564" x2="14.0803" y2="4.74341" gradientUnits="userSpaceOnUse">
<stop stop-color="#262F40"/>
<stop offset="1" stop-color="#D2D6D9"/>
</linearGradient>
<linearGradient id="paint1_linear_372_123" x1="72.3783" y1="16.1153" x2="234.924" y2="16.1153" gradientUnits="userSpaceOnUse">
<stop stop-color="#262F40"/>
<stop offset="1" stop-color="#D2D6D9"/>
</linearGradient>
</defs>
</svg>
