<svg width="31" height="30" viewBox="0 0 31 30" fill="none" xmlns="http://www.w3.org/2000/svg">
<path d="M6.88235 14.6879H16.2941M6.88235 19.3938H13.9412M18.6471 8.80554C19.5831 8.80554 20.4808 9.17739 21.1427 9.83928C21.8046 10.5012 22.1765 11.3989 22.1765 12.335V21.7467C22.1765 22.6828 21.8046 23.5805 21.1427 24.2424C20.4808 24.9043 19.5831 25.2761 18.6471 25.2761H12.7647L6.88235 28.8055V25.2761H4.52941C3.59335 25.2761 2.69563 24.9043 2.03374 24.2424C1.37185 23.5805 1 22.6828 1 21.7467V12.335C1 11.3989 1.37185 10.5012 2.03374 9.83928C2.69563 9.17739 3.59335 8.80554 4.52941 8.80554H18.6471Z" stroke="#4E4E4E" stroke-width="1.29861" stroke-linecap="round" stroke-linejoin="round"/>
<rect x="12" y="0.194458" width="19" height="19" rx="9.5" fill="#262F40"/>
<path d="M20.4003 12.2928H24.1209V13.1945H18.908V12.4897L21.8616 9.63973C22.6285 8.89355 22.7736 8.43755 22.7736 7.98155C22.7736 7.23537 22.245 6.77937 21.2294 6.77937C20.4521 6.77937 19.82 7.02809 19.3743 7.567L18.6696 6.95555C19.2292 6.26119 20.193 5.857 21.3227 5.857C22.8358 5.857 23.81 6.63428 23.81 7.87791C23.81 8.58264 23.6027 9.21482 22.6181 10.1579L20.4003 12.2928Z" fill="#FCFCFC"/>
</svg>
