<svg width="84" height="13" viewBox="0 0 84 13" fill="none" xmlns="http://www.w3.org/2000/svg">
<path d="M6.32109 0.46283L6.59388 5.88845L11.8382 4.47127L6.76247 6.40732L9.73088 10.9571L6.32109 6.72799L2.91131 10.9571L5.87972 6.40732L0.803945 4.47127L6.04831 5.88845L6.32109 0.46283Z" fill="#7DEBB8"/>
<path d="M24.1707 0.462769L24.4435 5.88839L29.6879 4.47121L24.6121 6.40725L27.5805 10.957L24.1707 6.72793L20.7609 10.957L23.7293 6.40725L18.6536 4.47121L23.8979 5.88839L24.1707 0.462769Z" fill="#7DEBB8"/>
<path d="M42.0198 0.462769L42.2926 5.88839L47.537 4.47121L42.4612 6.40725L45.4296 10.957L42.0198 6.72793L38.61 10.957L41.5785 6.40725L36.5027 4.47121L41.747 5.88839L42.0198 0.462769Z" fill="#7DEBB8"/>
<path d="M59.8694 0.462769L60.1422 5.88839L65.3866 4.47121L60.3108 6.40725L63.2792 10.957L59.8694 6.72793L56.4596 10.957L59.4281 6.40725L54.3523 4.47121L59.5967 5.88839L59.8694 0.462769Z" fill="#7DEBB8"/>
<path d="M77.719 0.462769L77.9918 5.88839L83.2362 4.47121L78.1604 6.40725L81.1288 10.957L77.719 6.72793L74.3093 10.957L77.2777 6.40725L72.2019 4.47121L77.4463 5.88839L77.719 0.462769Z" fill="url(#paint0_linear_372_334)"/>
<defs>
<linearGradient id="paint0_linear_372_334" x1="72.52" y1="6.96277" x2="83.02" y2="6.96277" gradientUnits="userSpaceOnUse">
<stop stop-color="#7DEBB8"/>
<stop offset="0.516423" stop-color="#858585"/>
</linearGradient>
</defs>
</svg>
