<svg width="32" height="28" viewBox="0 0 32 28" fill="none" xmlns="http://www.w3.org/2000/svg">
<path d="M10 24V15C10 13.4087 10.6321 11.8826 11.7574 10.7574C12.8826 9.63214 14.4087 9 16 9C17.5913 9 19.1174 9.63214 20.2426 10.7574C21.3679 11.8826 22 13.4087 22 15V24M10 24H22M10 24H8M22 24H24M15 27H17" stroke="#4E4E4E" stroke-width="1.25" stroke-linecap="round" stroke-linejoin="round"/>
<path d="M16 9C16.5523 9 17 8.55228 17 8C17 7.44772 16.5523 7 16 7C15.4477 7 15 7.44772 15 8C15 8.55228 15.4477 9 16 9Z" stroke="#4E4E4E" stroke-width="1.25"/>
</svg>
