<svg width="46" height="43" viewBox="0 0 46 43" fill="none" xmlns="http://www.w3.org/2000/svg">
<path d="M30.7031 29.5L26.8427 25.6396M26.8427 25.6396C27.5031 24.9793 28.0269 24.1953 28.3842 23.3326C28.7416 22.4698 28.9256 21.5451 28.9256 20.6112C28.9256 19.6774 28.7416 18.7526 28.3842 17.8899C28.0269 17.0271 27.5031 16.2432 26.8427 15.5828C26.1824 14.9225 25.3985 14.3987 24.5357 14.0413C23.6729 13.6839 22.7482 13.5 21.8143 13.5C20.8805 13.5 19.9558 13.6839 19.093 14.0413C18.2302 14.3987 17.4463 14.9225 16.786 15.5828C15.4523 16.9164 14.7031 18.7252 14.7031 20.6112C14.7031 22.4972 15.4523 24.306 16.786 25.6396C18.1196 26.9732 19.9283 27.7224 21.8143 27.7224C23.7003 27.7224 25.5091 26.9732 26.8427 25.6396Z" stroke="#4E4E4E" stroke-linecap="round" stroke-linejoin="round"/>
</svg>
